<?xml version="1.0" standalone="no"?>
<!DOCTYPE svg PUBLIC "-//W3C//DTD SVG 20010904//EN"
 "http://www.w3.org/TR/2001/REC-SVG-20010904/DTD/svg10.dtd">
<svg version="1.0" xmlns="http://www.w3.org/2000/svg"
 width="1600.000000pt" height="1600.000000pt" viewBox="0 0 1600.000000 1600.000000"
 preserveAspectRatio="xMidYMid meet">
<metadata>
Created by potrace 1.16, written by Peter Selinger 2001-2019
</metadata>
<g transform="translate(0.000000,1600.000000) scale(0.100000,-0.100000)"
fill="#000000" stroke="none">
<path d="M7650 15364 c-473 -22 -854 -67 -1270 -150 -2878 -570 -5121 -2696
-5634 -5339 -200 -1035 -134 -2091 195 -3085 246 -747 654 -1478 1175 -2105
164 -198 208 -318 208 -570 1 -182 -22 -309 -93 -525 -163 -494 -443 -970
-1021 -1735 -75 -99 -151 -205 -168 -235 -18 -30 -42 -67 -53 -81 -60 -76 -50
-278 22 -422 90 -182 242 -294 459 -339 81 -17 120 -19 270 -15 704 21 1432
278 2364 834 182 109 399 245 851 534 432 277 492 312 518 306 12 -2 105 -30
207 -61 498 -152 1019 -257 1530 -310 520 -54 1148 -45 1707 24 1732 214 3307
981 4478 2181 1370 1405 2020 3252 1804 5134 -125 1096 -549 2143 -1240 3065
-968 1289 -2418 2236 -4064 2653 -447 114 -886 185 -1365 223 -180 14 -730 25
-880 18z m595 -644 c774 -35 1482 -174 2175 -425 1837 -666 3255 -2046 3865
-3760 297 -836 385 -1758 254 -2650 -278 -1882 -1540 -3547 -3389 -4469 -822
-410 -1695 -648 -2660 -726 -69 -6 -251 -13 -405 -16 -856 -20 -1689 110
-2512 391 -106 36 -197 65 -203 65 -6 0 -37 -17 -68 -38 -31 -21 -106 -67
-167 -102 -60 -35 -354 -213 -651 -396 -784 -482 -1140 -683 -1499 -844 -378
-171 -685 -271 -981 -319 -132 -21 -324 -37 -324 -27 0 4 40 60 88 124 351
465 645 924 841 1312 116 229 163 337 226 520 94 275 125 439 132 695 6 210
-7 333 -53 489 -58 200 -133 338 -272 501 -123 143 -305 387 -425 567 -791
1195 -1098 2595 -871 3978 401 2445 2425 4427 5089 4984 575 120 1225 172
1810 146z"/>
<path d="M5160 12187 c-85 -25 -176 -100 -206 -172 -7 -17 -229 -656 -494
-1420 -265 -765 -494 -1417 -511 -1449 -16 -33 -29 -72 -29 -88 0 -16 -100
-316 -222 -666 -242 -694 -240 -689 -204 -799 23 -69 91 -144 164 -180 48 -24
69 -28 137 -28 93 0 148 21 214 81 55 49 66 73 140 289 34 99 121 351 194 560
l133 380 761 3 761 2 15 -42 c8 -24 86 -245 172 -493 87 -247 168 -482 180
-520 40 -127 82 -182 178 -232 45 -24 64 -28 137 -28 66 0 95 5 132 22 69 32
141 108 167 176 33 90 28 152 -23 298 -24 68 -355 1024 -736 2124 -447 1293
-702 2017 -721 2047 -70 109 -219 169 -339 135z m351 -2075 l266 -767 -535 -3
c-294 -1 -537 -1 -539 1 -5 6 530 1547 536 1541 3 -3 126 -350 272 -772z"/>
<path d="M10380 9964 c-93 -34 -158 -94 -199 -184 -19 -43 -21 -65 -21 -402
l0 -358 -852 -2 -853 -3 -52 -27 c-67 -36 -116 -85 -150 -151 -23 -44 -27 -65
-28 -137 0 -71 4 -93 25 -135 35 -72 105 -138 173 -164 l58 -21 1424 0 c832 0
1425 -4 1425 -9 0 -22 -47 -160 -107 -311 -181 -458 -429 -868 -748 -1237 -51
-59 -115 -130 -143 -156 l-49 -48 -115 123 c-278 297 -464 534 -623 793 -81
133 -113 168 -185 203 -46 23 -68 27 -135 27 -95 0 -167 -28 -229 -91 -61 -62
-90 -134 -91 -224 0 -95 23 -144 161 -351 168 -251 349 -478 591 -742 74 -82
132 -152 127 -157 -5 -4 -49 -37 -99 -72 -339 -242 -784 -472 -1159 -600 -158
-53 -184 -67 -239 -128 -56 -62 -77 -122 -77 -215 0 -60 5 -82 30 -133 59
-118 154 -176 285 -176 76 0 91 5 275 76 538 208 959 438 1366 748 l101 77
139 -109 c357 -282 715 -510 1096 -699 163 -80 169 -82 240 -82 152 0 270 90
313 238 32 109 -3 234 -88 312 -24 23 -123 80 -237 139 -307 158 -594 338
-845 528 -65 50 -124 94 -129 98 -5 3 27 45 71 92 520 549 933 1280 1162 2056
l8 25 239 5 c236 5 240 5 290 32 28 15 72 50 97 78 142 158 86 412 -111 503
-47 22 -50 22 -879 25 l-832 3 -3 357 -3 357 -26 55 c-31 66 -94 131 -156 161
-61 29 -171 36 -233 13z"/>
</g>
</svg>
