<?xml version="1.0" standalone="no"?><!-- Generator: Gravit.io --><svg xmlns="http://www.w3.org/2000/svg" xmlns:xlink="http://www.w3.org/1999/xlink" style="isolation:isolate" viewBox="0 0 450 450" width="450" height="450"><defs><clipPath id="_clipPath_3d4VWos8vGp7FbqLHLpSkiigLeXLvX8i"><rect width="450" height="450"/></clipPath></defs><g clip-path="url(#_clipPath_3d4VWos8vGp7FbqLHLpSkiigLeXLvX8i)"><path d=" M 15 32 L 15 76.463 C 14.899 77.075 14.899 77.7 15 78.313 L 15 293.144 L 241.23 293.144 L 219.373 271.287 L 219.373 276.112 C 219.373 279.248 216.832 281.79 213.696 281.79 L 202.342 281.79 C 199.207 281.79 196.665 279.248 196.665 276.112 L 196.665 259.081 C 196.69 256.244 198.825 253.87 201.644 253.546 L 190.137 242.05 L 128.541 242.05 C 128.541 238.915 125.999 236.373 122.864 236.373 C 119.728 236.373 117.187 238.915 117.187 242.05 L 26.354 242.05 L 26.354 83.093 L 117.187 83.093 C 117.187 86.229 119.728 88.77 122.864 88.77 C 125.999 88.77 128.541 86.229 128.541 83.093 L 287.498 83.093 C 287.498 86.229 290.039 88.77 293.175 88.77 C 296.31 88.77 298.852 86.229 298.852 83.093 L 389.684 83.093 L 389.684 242.05 L 328.089 242.05 L 339.443 253.404 L 349.945 253.404 C 353.08 253.404 355.622 255.946 355.622 259.081 L 355.622 269.584 L 379.182 293.144 L 401.038 293.144 L 401.038 78.291 C 401.131 77.704 401.131 77.106 401.038 76.519 L 401.038 32 L 15 32 Z  M 32.031 43.354 L 43.385 43.354 C 46.593 43.354 49.062 45.824 49.062 49.031 L 49.062 66.062 C 49.062 69.27 46.593 71.739 43.385 71.739 L 32.031 71.739 C 28.824 71.739 26.354 69.27 26.354 66.062 L 26.354 49.031 C 26.354 45.824 28.824 43.354 32.031 43.354 Z  M 66.093 43.354 L 77.447 43.354 C 80.655 43.354 83.124 45.824 83.124 49.031 L 83.124 66.062 C 83.124 69.27 80.655 71.739 77.447 71.739 L 66.093 71.739 C 62.886 71.739 60.416 69.27 60.416 66.062 L 60.416 49.031 C 60.416 45.824 62.886 43.354 66.093 43.354 Z  M 100.156 43.354 L 111.51 43.354 C 114.717 43.354 117.187 45.824 117.187 49.031 L 117.187 66.062 C 117.187 69.27 114.717 71.739 111.51 71.739 L 100.156 71.739 C 96.948 71.739 94.479 69.27 94.479 66.062 L 94.479 49.031 C 94.479 45.824 96.948 43.354 100.156 43.354 Z  M 134.218 43.354 L 145.572 43.354 C 148.779 43.354 151.249 45.824 151.249 49.031 L 151.249 66.062 C 151.249 69.27 148.779 71.739 145.572 71.739 L 134.218 71.739 C 131.01 71.739 128.541 69.27 128.541 66.062 L 128.541 49.031 C 128.541 45.824 131.01 43.354 134.218 43.354 Z  M 168.28 43.354 L 179.634 43.354 C 182.842 43.354 185.311 45.824 185.311 49.031 L 185.311 66.062 C 185.311 69.27 182.842 71.739 179.634 71.739 L 168.28 71.739 C 165.072 71.739 162.603 69.27 162.603 66.062 L 162.603 49.031 C 162.603 45.824 165.072 43.354 168.28 43.354 Z  M 202.342 43.354 L 213.696 43.354 C 216.904 43.354 219.373 45.824 219.373 49.031 L 219.373 66.062 C 219.373 69.27 216.904 71.739 213.696 71.739 L 202.342 71.739 C 199.135 71.739 196.665 69.27 196.665 66.062 L 196.665 49.031 C 196.665 45.824 199.135 43.354 202.342 43.354 Z  M 236.404 43.354 L 247.758 43.354 C 250.966 43.354 253.436 45.824 253.436 49.031 L 253.436 66.062 C 253.436 69.27 250.966 71.739 247.758 71.739 L 236.404 71.739 C 233.197 71.739 230.727 69.27 230.727 66.062 L 230.727 49.031 C 230.727 45.824 233.197 43.354 236.404 43.354 Z  M 270.467 43.354 L 281.821 43.354 C 285.028 43.354 287.498 45.824 287.498 49.031 L 287.498 66.062 C 287.498 69.27 285.028 71.739 281.821 71.739 L 270.467 71.739 C 267.259 71.739 264.79 69.27 264.79 66.062 L 264.79 49.031 C 264.79 45.824 267.259 43.354 270.467 43.354 Z  M 304.529 43.354 L 315.883 43.354 C 319.09 43.354 321.56 45.824 321.56 49.031 L 321.56 66.062 C 321.56 69.27 319.09 71.739 315.883 71.739 L 304.529 71.739 C 301.321 71.739 298.852 69.27 298.852 66.062 L 298.852 49.031 C 298.852 45.824 301.321 43.354 304.529 43.354 Z  M 338.591 43.354 L 349.945 43.354 C 353.153 43.354 355.622 45.824 355.622 49.031 L 355.622 66.062 C 355.622 69.27 353.153 71.739 349.945 71.739 L 338.591 71.739 C 335.384 71.739 332.914 69.27 332.914 66.062 L 332.914 49.031 C 332.914 45.824 335.384 43.354 338.591 43.354 Z  M 372.653 43.354 L 384.007 43.354 C 387.215 43.354 389.684 45.824 389.684 49.031 L 389.684 66.062 C 389.684 69.27 387.215 71.739 384.007 71.739 L 372.653 71.739 C 369.446 71.739 366.976 69.27 366.976 66.062 L 366.976 49.031 C 366.976 45.824 369.446 43.354 372.653 43.354 Z  M 122.864 100.124 C 119.728 100.124 117.187 102.666 117.187 105.801 C 117.187 108.937 119.728 111.478 122.864 111.478 C 125.999 111.478 128.541 108.937 128.541 105.801 C 128.541 102.666 125.999 100.124 122.864 100.124 Z  M 293.175 100.124 C 290.039 100.124 287.498 102.666 287.498 105.801 C 287.498 108.937 290.039 111.478 293.175 111.478 C 296.31 111.478 298.852 108.937 298.852 105.801 C 298.852 102.666 296.31 100.124 293.175 100.124 Z  M 122.864 122.833 C 119.728 122.833 117.187 125.374 117.187 128.51 C 117.187 131.645 119.728 134.187 122.864 134.187 C 125.999 134.187 128.541 131.645 128.541 128.51 C 128.541 125.374 125.999 122.833 122.864 122.833 Z  M 293.175 122.833 C 290.039 122.833 287.498 125.374 287.498 128.51 C 287.498 131.645 290.039 134.187 293.175 134.187 C 296.31 134.187 298.852 131.645 298.852 128.51 C 298.852 125.374 296.31 122.833 293.175 122.833 Z  M 122.864 145.541 C 119.728 145.541 117.187 148.082 117.187 151.218 C 117.187 154.353 119.728 156.895 122.864 156.895 C 125.999 156.895 128.541 154.353 128.541 151.218 C 128.541 148.082 125.999 145.541 122.864 145.541 Z  M 293.175 145.541 C 290.039 145.541 287.498 148.082 287.498 151.218 C 287.498 154.353 290.039 156.895 293.175 156.895 C 296.31 156.895 298.852 154.353 298.852 151.218 C 298.852 148.082 296.31 145.541 293.175 145.541 Z  M 122.864 168.249 C 119.728 168.249 117.187 170.791 117.187 173.926 C 117.187 177.061 119.728 179.603 122.864 179.603 C 125.999 179.603 128.541 177.061 128.541 173.926 C 128.541 170.791 125.999 168.249 122.864 168.249 Z  M 293.175 168.249 C 290.039 168.249 287.498 170.791 287.498 173.926 C 287.498 177.061 290.039 179.603 293.175 179.603 C 296.31 179.603 298.852 177.061 298.852 173.926 C 298.852 170.791 296.31 168.249 293.175 168.249 Z  M 199.248 182.186 L 220.395 248.227 L 221.372 249.203 L 347.674 375.495 L 347.663 375.506 L 351.677 379.52 L 378.728 406.565 L 381.799 409.625 C 392.966 420.792 411.251 420.792 422.418 409.625 L 426.699 405.344 C 437.868 394.113 437.868 375.968 426.699 364.737 L 423.627 361.671 L 392.557 330.612 L 265.289 203.333 L 199.248 182.186 L 199.248 182.186 Z  M 122.864 190.957 C 119.728 190.957 117.187 193.499 117.187 196.634 C 117.187 199.769 119.728 202.311 122.864 202.311 C 125.999 202.311 128.541 199.769 128.541 196.634 C 128.541 193.499 125.999 190.957 122.864 190.957 Z  M 293.175 190.957 C 290.039 190.957 287.498 193.499 287.498 196.634 C 287.498 199.769 290.039 202.311 293.175 202.311 C 296.31 202.311 298.852 199.769 298.852 196.634 C 298.852 193.499 296.31 190.957 293.175 190.957 Z  M 222.819 201.658 L 256.121 212.314 L 256.109 212.388 C 255.644 214.698 254.594 217.156 253.623 218.122 C 252.658 219.087 250.188 220.143 247.878 220.608 C 245.573 221.068 243.813 221.074 243.813 221.074 L 238.136 221.074 L 238.136 226.751 C 238.136 226.751 238.13 228.511 237.67 230.815 C 237.205 233.126 236.155 235.595 235.184 236.561 C 234.219 237.526 231.761 238.582 229.45 239.047 C 229.422 239.047 229.405 239.047 229.376 239.058 L 218.72 205.757 L 222.819 201.658 Z  M 122.864 213.665 C 119.728 213.665 117.187 216.207 117.187 219.342 C 117.187 222.477 119.728 225.019 122.864 225.019 C 125.999 225.019 128.541 222.477 128.541 219.342 C 128.541 216.207 125.999 213.665 122.864 213.665 Z  M 265.732 219.83 L 384.541 338.628 L 355.702 367.467 L 236.893 248.67 C 239.05 247.807 241.241 246.564 243.211 244.588 C 246.856 240.949 248.11 236.498 248.803 233.046 C 248.928 232.405 248.848 232.462 248.934 231.871 C 249.524 231.786 249.467 231.871 250.109 231.741 C 253.56 231.048 258.011 229.794 261.65 226.149 C 263.626 224.179 264.869 221.988 265.732 219.83 Z  M 32.031 253.404 L 43.385 253.404 C 46.521 253.404 49.062 255.946 49.062 259.081 L 49.062 276.112 C 49.062 279.248 46.521 281.79 43.385 281.79 L 32.031 281.79 C 28.896 281.79 26.354 279.248 26.354 276.112 L 26.354 259.081 C 26.354 255.946 28.896 253.404 32.031 253.404 Z  M 66.093 253.404 L 77.447 253.404 C 80.583 253.404 83.124 255.946 83.124 259.081 L 83.124 276.112 C 83.124 279.248 80.583 281.79 77.447 281.79 L 66.093 281.79 C 62.958 281.79 60.416 279.248 60.416 276.112 L 60.416 259.081 C 60.416 255.946 62.958 253.404 66.093 253.404 Z  M 100.156 253.404 L 111.51 253.404 C 114.645 253.404 117.187 255.946 117.187 259.081 L 117.187 276.112 C 117.187 279.248 114.645 281.79 111.51 281.79 L 100.156 281.79 C 97.02 281.79 94.479 279.248 94.479 276.112 L 94.479 259.081 C 94.479 255.946 97.02 253.404 100.156 253.404 Z  M 134.218 253.404 L 145.572 253.404 C 148.707 253.404 151.249 255.946 151.249 259.081 L 151.249 276.112 C 151.249 279.248 148.707 281.79 145.572 281.79 L 134.218 281.79 C 131.082 281.79 128.541 279.248 128.541 276.112 L 128.541 259.081 C 128.541 255.946 131.082 253.404 134.218 253.404 Z  M 168.28 253.404 L 179.634 253.404 C 182.769 253.404 185.311 255.946 185.311 259.081 L 185.311 276.112 C 185.311 279.248 182.769 281.79 179.634 281.79 L 168.28 281.79 C 165.145 281.79 162.603 279.248 162.603 276.112 L 162.603 259.081 C 162.603 255.946 165.145 253.404 168.28 253.404 Z  M 372.653 253.404 L 384.007 253.404 C 387.143 253.404 389.684 255.946 389.684 259.081 L 389.684 276.112 C 389.684 279.248 387.143 281.79 384.007 281.79 L 372.653 281.79 C 369.518 281.79 366.976 279.248 366.976 276.112 L 366.976 259.081 C 366.976 255.946 369.518 253.404 372.653 253.404 Z  M 392.557 346.667 L 407.567 361.665 L 378.728 390.505 L 363.729 375.506 L 392.557 346.667 L 392.557 346.667 Z  M 415.594 369.693 L 418.666 372.764 C 421.944 376.008 423.789 380.428 423.789 385.041 C 423.789 389.653 421.944 394.073 418.666 397.317 L 414.391 401.598 C 411.145 404.877 406.723 406.722 402.109 406.722 C 397.494 406.722 393.072 404.877 389.826 401.598 L 386.761 398.532 L 415.6 369.693 L 415.594 369.693 Z " fill="rgb(0,0,0)"/></g></svg>